<svg xmlns="http://www.w3.org/2000/svg" fill="none" viewBox="0 0 48 48" height="48" width="48" id="Heart--Streamline-Plump.svg"><desc>Heart Streamline Icon: https://streamlinehq.com</desc><g id="Heart--Streamline-Plump.svg"><path id="Subtract" fill="#ed363f" fill-rule="evenodd" d="M1.926 14.91c2.16 -9.743 14.086 -13.763 21.56 -7.191 0.174 0.151 0.346 0.314 0.514 0.48 0.168 -0.166 0.34 -0.329 0.513 -0.48 7.475 -6.572 19.4 -2.552 21.56 7.19 1.492 6.347 -1.033 11.768 -4.757 16.202 -3.696 4.4 -8.74 8.034 -12.714 10.897l-0.028 0.02a7.843 7.843 0 0 1 -9.149 0l-0.027 -0.02c-3.973 -2.862 -9.019 -6.497 -12.714 -10.897 -3.725 -4.434 -6.249 -9.855 -4.758 -16.202Zm31.518 -5.116a2.25 2.25 0 0 0 -0.889 4.412c1.976 0.398 3.743 1.924 4.245 4.265a2.25 2.25 0 1 0 4.4 -0.942c-0.897 -4.187 -4.12 -7.002 -7.756 -7.735Z" clip-rule="evenodd" stroke-width="1"></path></g></svg>